<svg xmlns="http://www.w3.org/2000/svg" height="512" width="512" xmlns:v="https://vecta.io/nano"><path d="M512 256c0 29.92-5.13 58.64-14.57 85.33-11.24 31.8-28.58 60.72-50.62 85.34C399.93 479.04 331.8 512 256 512s-143.93-32.96-190.8-85.33c-22.04-24.62-39.38-53.54-50.62-85.34C5.13 314.64 0 285.92 0 256s5.13-58.64 14.57-85.33c11.24-31.8 28.58-60.72 50.62-85.34C112.07 32.96 180.2 0 256 0s143.93 32.96 190.8 85.33c22.04 24.62 39.38 53.54 50.62 85.34 9.44 26.7 14.57 55.4 14.57 85.33z" fill="#fc5692"/><path d="M497.43 170.67H14.57c11.24-31.8 28.58-60.72 50.62-85.34H446.8c22.04 24.62 39.38 53.54 50.62 85.34z" fill="#6311f4"/><path d="M512 256H0c0-29.92 5.13-58.64 14.57-85.33h482.86c9.44 26.7 14.57 55.4 14.57 85.33z" fill="#f1ca26"/><path d="M512 256c0 29.92-5.13 58.64-14.57 85.33H14.57C5.13 314.64 0 285.92 0 256z" fill="#67dbc5"/><path d="M497.43 341.33c-11.24 31.8-28.58 60.72-50.62 85.34H65.2c-22.04-24.62-39.38-53.54-50.62-85.34z" fill="#fc5692"/><path d="M446.8 426.67C399.93 479.04 331.8 512 256 512s-143.93-32.96-190.8-85.33z" fill="#67dbc5"/></svg>