<svg xmlns="http://www.w3.org/2000/svg" viewBox="0 0 512 512"><path d="M512 0h-55.698L279.87 176.43l-7.956 39.785-43.763 11.935-94.932 94.93 19.893 67.634z" fill="#a0f6fa"/><path d="M512 0L307.72 204.28l-27.85-27.85-47.74 47.742 27.85 27.85-98.91 98.9-27.85-27.85-31.827 31.827 55.7 55.7L512 55.698z" fill="#78e3ec"/><path d="M196.875 434.48l-47.74-47.74-19.893 3.98-3.98 19.893 23.87 23.87c-13.184 13.184-13.184 34.558 0 47.74s34.557 13.184 47.74 0 13.185-34.56.002-47.742z" fill="#e02e00"/><path d="M77.52 315.125c-13.184-13.184-34.558-13.184-47.74 0s-13.184 34.558 0 47.74 34.558 13.184 47.74 0l23.87 23.87-75.49 75.49 23.87 23.87 99.36-99.36-71.612-71.61z" fill="#ff4719"/><path d="M57.63 454.37l-31.827 15.914-15.914 31.827c13.184 13.184 34.558 13.184 47.74 0s13.183-34.557 0-47.74z" fill="#e02e00"/><path d="M9.888 454.37c-13.184 13.184-13.184 34.558 0 47.74l47.74-47.74c-13.184-13.183-34.557-13.183-47.74 0z" fill="#ff4719"/><path d="M0 0v55.698L323.082 378.78l67.634-19.893z" fill="#d0fbfd"/><path d="M0 0l350.932 350.932-27.85 27.85 31.83 31.827 55.697-55.7L55.7 0z" fill="#a0f6fa"/><path d="M434.48 315.125l-47.74 47.74 3.98 19.893 19.893 3.98 23.87-23.87c13.184 13.184 34.558 13.184 47.74 0s13.184-34.557 0-47.74-34.56-13.185-47.742-.002z" fill="#ff4719"/><path d="M386.738 410.608l-23.87 23.87c13.184 13.184 13.184 34.558 0 47.74s-34.558 13.184-47.74 0-13.184-34.558 0-47.74l71.613-71.613 99.36 99.36-23.87 23.87-75.493-75.488z" fill="#ff754f"/><path d="M454.37 454.37l15.914 31.827 31.827 15.914c13.184-13.184 13.184-34.558 0-47.74s-34.557-13.183-47.74 0z" fill="#ff4719"/><path d="M454.37 502.112c13.184 13.184 34.558 13.184 47.74 0l-47.74-47.74c-13.183 13.184-13.183 34.56 0 47.74z" fill="#ff754f"/><circle cx="53.651" cy="339" r="8.44" fill="#fff"/><circle cx="173" cy="458.347" r="8.44" fill="#ffdb8a"/><circle cx="458.347" cy="339" r="8.44" fill="#ffcd60"/><circle cx="339" cy="458.347" r="8.44" fill="#fff"/></svg>