<svg xmlns="http://www.w3.org/2000/svg" height="682.667" viewBox="0 -4 512.848 512" width="682.667" xmlns:v="https://vecta.io/nano"><path d="M208 504.648l-6.543-2.93C193.246 497.977 0 410.246 0 295.047V58.55l208-52 208 52v236.496c0 115.2-193.246 202.93-201.457 206.61zm0 0" fill="#ffd54f"/><path d="M208 433.816l-7.52-4C149.793 402.84 64 344.105 64 295.047V108.473l144-36 144 36v186.574c0 49.06-85.793 107.793-136.48 134.77zm0 0" fill="#ffb300"/><path d="M478.13 375.047H353.87l-34.72-277.773L416 .426l96.848 96.848zm0 0" fill="#cfd8dc"/><path d="M416 503.047c-26.508 0-48-21.488-48-48v-96h96v96c0 26.512-21.492 48-48 48zm0 0" fill="#80deea"/><g fill="#fff"><path d="M400 247.047h32v32h-32zm-304-112h32v32H96zm0 0"/><path d="M96 199.047h32v32H96zm64-64h32v32h-32zm0 0"/></g><path d="M336 343.047h160c8.836 0 16 7.164 16 16s-7.164 16-16 16H336c-8.836 0-16-7.164-16-16s7.164-16 16-16zm0 0" fill="#4dd0e1"/><path d="M416 .426l-16 16v198.62h32V16.426zm0 0" fill="#b0bec5"/></svg>