<svg xmlns="http://www.w3.org/2000/svg" height="512" width="512" xmlns:v="https://vecta.io/nano"><path d="M256 284.993l15.488 89.587L256 418.688l-68.217-10c18.838 0 34.11-15.27 34.11-34.11v-89.587H256z" fill="#ff9f22"/><path d="M290.11 284.993v89.587c0 18.838 15.27 34.11 34.11 34.11l-68.217 10V284.993z" fill="#ff7d45"/><path d="M407.625 223.282h-42.557v-30h31.39l62.492-54.014c-3.17-23.155-23.08-41.05-47.092-41.05H377.75v-30h34.108c42.75 0 77.533 34.78 77.533 77.532v6.862z" fill="#ff7c48"/><path d="M146.936 223.282h-42.56L22.6 152.61v-6.862c0-42.75 34.78-77.532 77.533-77.532h34.108v30h-34.108c-24.012 0-43.922 17.896-47.092 41.05l62.492 54.014h31.393z" fill="#ff9f22"/><path d="M333.14 164.445L256 294.993c-69.07 0-125.065-55.993-125.065-125.065V15H256z" fill="#ffda44"/><g fill="#ff9f22"><path d="M256 15h125.065v154.928c0 69.07-55.993 125.065-125.065 125.065z"/><path d="M86.594 0h338.813v30H86.594z"/></g><path d="M256 0h169.406v30H256z" fill="#ff7c48"/><path d="M256 512H144.98v-72.335c0-17.108 13.87-30.976 30.976-30.976H256l61.02 50.976z" fill="#69b1e9"/><path d="M256 408.688h80.043c17.108 0 30.976 13.87 30.976 30.976V512H256z" fill="#2681ff"/><path d="M256 164.445h-15.488V133.47H256l5.488 15.488z" fill="#ff9f22"/><path d="M256 133.47h15.488v30.976H256z" fill="#ff7c48"/></svg>